<?xml version="1.0" encoding="utf-8"?>
<!-- Generator: Adobe Illustrator 22.0.1, SVG Export Plug-In . SVG Version: 6.00 Build 0)  -->
<svg version="1.1" id="Calque_1" xmlns="http://www.w3.org/2000/svg" xmlns:xlink="http://www.w3.org/1999/xlink" x="0px" y="0px"
	 viewBox="0 0 924.1 924.1" style="enable-background:new 0 0 924.1 924.1;" xml:space="preserve">
<style type="text/css">
	.st0{fill:#03C9D3;}
	.st1{fill:#FFFFFF;}
</style>
<title>Fichier 1700</title>
<g id="Calque_2_1_">
	<g id="Calque_1-2">
		<circle class="st0" cx="462" cy="462" r="462"/>
		<path class="st1" d="M589.3,375.8c-4.4-4.1-11.2-4.1-15.6,0L363.6,586.1c-4.3,4.3-4.3,11.3,0,15.6c0.8,0.8,1.8,1.5,2.9,2.1
			l17.2,8.6v29l-52.8,15.1l-53.3-53.4l15.1-52.9h29l8.6,17.3c1.6,3.2,4.6,5.4,8.1,6c0.6,0.1,1.2,0.1,1.8,0.1c2.9,0,5.7-1.2,7.8-3.3
			l210.1-210.3c4.3-4.3,4.3-11.3,0-15.6l-40.6-40.7c-2.1-2.1-4.9-3.3-7.8-3.3l0,0c-2.9,0-5.8,1.2-7.8,3.3L276.4,531.5
			c-0.1,0.1-0.1,0.3-0.2,0.4c-1.2,1.2-2.1,2.7-2.6,4.4l-19.2,67.2l-25,87.6c-1.7,5.9,1.7,12,7.6,13.7c1,0.3,2,0.4,3,0.4
			c1,0,2-0.1,3-0.4l87.5-25.1l67.1-19.2c0.2-0.1,0.3-0.2,0.5-0.3c0.7-0.3,1.3-0.6,1.9-1c0.6-0.3,1.2-0.7,1.8-1.2
			c0.1-0.1,0.3-0.2,0.5-0.3l227.4-225.6c4.3-4.3,4.3-11.3,0-15.6c0,0,0,0,0,0L589.3,375.8z"/>
		<path class="st1" d="M702.1,297.9l-66.3-66.4c-16.7-16.7-45.8-16.7-62.5,0l-40.5,40.9c-4.3,4.3-4.3,11.3,0,15.6l112.8,112.9
			c4.3,4.3,11.3,4.3,15.6,0l40.9-40.5C719.4,343.1,719.4,315.1,702.1,297.9L702.1,297.9z"/>
	</g>
</g>
</svg>
