<svg id="Calque_1" data-name="Calque 1" xmlns="http://www.w3.org/2000/svg" viewBox="0 0 277.32 277.32"><defs><style>.cls-1{fill:#fff;}.cls-2{fill:#6d6e71;}</style></defs><title>user_logo</title><circle class="cls-1" cx="138.66" cy="138.66" r="137.16"/><path class="cls-2" d="M142,279.11c-76.46,0-138.66-62.2-138.66-138.66S65.52,1.78,142,1.78,280.65,64,280.65,140.45,218.44,279.11,142,279.11ZM142,4.78C67.18,4.78,6.32,65.64,6.32,140.45S67.18,276.11,142,276.11s135.67-60.86,135.67-135.66S216.79,4.78,142,4.78Z" transform="translate(-3.32 -1.78)"/><circle class="cls-1" cx="138.89" cy="115.98" r="71.85"/><path class="cls-2" d="M142.21,191.12a73.36,73.36,0,1,1,73.36-73.35A73.43,73.43,0,0,1,142.21,191.12Zm0-143.71a70.36,70.36,0,1,0,70.36,70.36A70.43,70.43,0,0,0,142.21,47.41Z" transform="translate(-3.32 -1.78)"/><path class="cls-2" d="M228.84,241.34h-3c0-13.58-4.05-24.44-12.05-32.28-17.86-17.52-52-16.87-68.48-16.55l-2.25,0c-12.48.21-33.36.57-50.74,6.9-20.59,7.49-31,21.59-31,41.89h-3C58.29,191,117.66,190,143,189.55l2.24,0c16.84-.33,51.88-1,70.65,17.41C224.48,215.34,228.84,226.92,228.84,241.34Z" transform="translate(-3.32 -1.78)"/></svg>